<svg xmlns="http://www.w3.org/2000/svg" viewBox="0 0 99.9 157">
    <path
        d="M 49.3 0.1 C 45.1 0.9 41.6 4.4 40.9 8.5 L 40.8 9 C 93.8 9 96.5 9 96.4 8.8 C 96.2 8.6 94.9 7.7 94.4 7.4 C 92.9 6.6 92.2 6.4 87.9 5.8 C 76.6 4.1 55 0.7 53.7 0.3 C 52.3 0 50.5 -0.1 49.3 0.1 M 98.2 11.4 L 98 11.6 L 40.7 11.6 L 40.9 18.9 L 93 19 L 96.2 15.4 L 99.9 15.4 L 99.9 15.1 C 99.7 13.9 99.3 12.9 98.8 11.9 C 98.4 11.1 98.4 11.1 98.2 11.4 M 92 19 L 89 22.1 L 41 22.1 L 41.2 29.5 L 82.6 29.6 L 79.7 32.9 L 41.3 32.9 L 41.6 40.3 L 74.8 40.3 L 78.1 36.5 L 96.3 36.5 L 97.7 29.6 L 84.1 29.5 L 86.9 26.2 L 98.4 26.2 L 100 19 L 92 19 M 72 42 L 70.7 43.5 L 41.7 43.5 L 41.9 50.9 L 65.7 50.9 L 68.7 47.4 L 94.1 47.4 L 95.5 40.5 L 73.29 40.396 M 3.1 44.2 C 1.4 44.7 0.3 46.1 0.1 47.6 L 0.3 151.3 C 1.3 154.2 3 155.9 5.8 157 L 42.4 156.9 C 44.9 155.7 46.7 153.4 47.2 150.8 C 44.7 77.8 44.6 77.5 44.6 77.5 L 47.1 79.5 L 87.7 79.5 L 89.1 72.5 L 47.3 72.4 L 50.5 68.6 L 89.8 68.6 L 91.2 61.7 L 56.6 61.6 L 59.6 58 L 91.9 58 L 93.4 51 L 64.2 51 L 61.4 54.3 L 42 54.3 L 42.2 61.7 L 55 61.8 L 52.2 65 L 42.3 65 L 42.6 72.5 L 45.8 72.5 C 43.5 75.1 43.7 75.1 43.3 74.5 C 42.8 73.8 41.9 72.9 39.8 71.2 L 6.5 44.6 C 5.5 44 4.1 43.8 3.1 44.2 M 53.4 84.5 L 60.1 89.7 L 85.6 89.7 L 87 82.8 L 51.3 82.7 M 65.1 93.7 C 72.6 99.8 73.2 100.1 73.5 100.3 L 74.2 100.7 L 77.1 100.7 L 80 100.7 L 80.6 100.4 C 82.9 99.2 84.5 96.9 84.7 94.5 C 84.8 94.2 84.8 93.9 84.8 93.8 L 65.1 93.7"
        fill="#C45231" />
</svg>