<svg xmlns="http://www.w3.org/2000/svg" viewBox="0 0 99.6 156.4">
	<path d="M 49.65 0.775 C 42.575 2.275 39.925 11 44.975 16.225 C 50.75 22.175 60.725 18.1 60.725 9.775 C 60.725 3.825 55.45 -0.475 49.65 0.775 M 88.55 7.7 C 81.45 9.2 78.825 17.925 83.875 23.15 C 89.65 29.1 99.6 25.025 99.6 16.7 C 99.6 10.75 94.35 6.45 88.55 7.7 M 68.075 10.6 C 64.575 11.775 64.625 16.95 68.15 18 C 72.425 19.225 75.15 13.425 71.425 11.025 C 70.5 10.425 69.075 10.25 68.075 10.6 M 59.35 22.3 C 55.85 23.5 55.925 28.675 59.45 29.7 C 63.725 30.95 66.45 25.125 62.7 22.725 C 61.8 22.125 60.375 21.95 59.35 22.3 M 75.575 24.75 C 73.325 25.35 71.8 27.375 71.8 29.75 C 71.8 34.35 77.3 36.625 80.55 33.375 C 84.25 29.7 80.6 23.4 75.575 24.75 M 48.65 25.725 C 42.85 26.95 40.975 34.35 45.5 38.125 C 48.625 40.775 53.575 40.1 55.875 36.75 C 58.05 33.55 57.25 29 54.1 26.875 C 52.625 25.85 50.325 25.375 48.65 25.725 M 62.875 31.525 C 56.375 33.325 57.675 42.875 64.4 42.875 C 70.95 42.875 72.45 33.725 66.25 31.625 C 65.45 31.35 63.7 31.3 62.875 31.525 M 90.95 34.025 C 88.55 34.95 88.55 38.65 90.975 39.55 C 93.05 40.325 95 39 95 36.8 C 95 34.6 93 33.25 90.95 34.025 M 52.05 40.425 C 44.975 41.95 42.325 50.675 47.375 55.875 C 53.15 61.825 63.1 57.75 63.1 49.45 C 63.1 43.475 57.85 39.175 52.05 40.425 M 80.225 41.4 C 75.975 42.2 72.85 45.25 71.775 49.65 C 71.625 50.3 71.625 53.2 71.775 53.85 C 73.175 59.6 78.3 63.075 83.925 62.1 C 84.325 62.025 84.675 61.975 84.7 61.975 C 84.725 61.975 84.55 62.1 84.3 62.25 C 81.675 64.05 82.3 68.3 85.35 69.175 C 87.925 69.95 90.3 68.175 90.3 65.475 C 90.3 63.15 88.775 61.625 86.475 61.625 L 85.775 61.625 L 86.425 61.325 C 89.4 60.05 91.575 57.325 92.4 53.85 C 92.575 53.2 92.575 50.3 92.4 49.65 C 91 43.9 85.8 40.375 80.225 41.4 M 66.1 43.75 C 62.6 44.95 62.675 50.125 66.2 51.15 C 70.475 52.4 73.2 46.6 69.45 44.175 C 68.55 43.575 67.125 43.4 66.1 43.75 M 3.075 44.175 C 1.425 44.7 0.275 46.05 0.075 47.625 L 0 150.325 L 0.35 151.325 C 1.325 154.2 2.975 155.9 5.75 157 L 42.4 156.9 C 44.9 155.725 46.725 153.425 47.225 150.775 L 45.1 84.75 C 44.75 75.275 44.7 75.125 39.775 71.225 C 8.65 46.275 6.775 44.8 6.5 44.65 C 5.475 44.025 4.125 43.85 3.075 44.175 M 66.7 52.3 C 63.2 53.5 63.275 58.675 66.8 59.7 C 71.075 60.95 73.8 55.125 70.05 52.725 C 69.15 52.125 67.725 51.95 66.7 52.3 M 59.6 57.75 C 57.35 58.35 55.8 60.35 55.8 62.725 C 55.8 67.35 61.325 69.625 64.575 66.375 C 68.275 62.675 64.625 56.375 59.6 57.75 M 47.375 58.55 C 43.875 59.725 43.95 64.9 47.475 65.925 C 51.75 67.175 54.475 61.375 50.75 58.975 C 49.825 58.375 48.4 58.2 47.375 58.55 M 71.925 61.025 C 65.45 62.825 66.725 72.35 73.45 72.35 C 80 72.35 81.5 63.2 75.3 61.1 C 74.5 60.825 72.75 60.8 71.925 61.025 M 49.625 66.1 C 44.7 67.35 43.15 73.7 47 76.9 C 51.175 80.375 57.225 77.575 57.225 72.175 C 57.225 68.075 53.525 65.125 49.625 66.1 M 59.75 68.725 C 57.35 69.65 57.375 73.35 59.775 74.25 C 61.85 75.025 63.8 73.7 63.8 71.5 C 63.8 69.3 61.8 67.95 59.75 68.725 M 81.175 69.225 C 74.675 71.025 75.95 80.55 82.7 80.55 C 89.25 80.55 90.725 71.425 84.525 69.3 C 83.725 69.05 82 69 81.175 69.225 M 67.1 72.825 C 60 74.325 57.375 83.05 62.425 88.275 C 68.2 94.225 78.15 90.15 78.15 81.85 C 78.15 75.875 72.9 71.575 67.1 72.825 M 55.05 77.875 C 52.65 78.8 52.675 82.5 55.075 83.4 C 57.15 84.175 59.1 82.825 59.1 80.65 C 59.1 78.45 57.1 77.1 55.05 77.875 M 80.875 81.35 C 77.375 82.55 77.45 87.725 80.975 88.75 C 85.25 90 87.975 84.2 84.25 81.775 C 83.325 81.2 81.9 81 80.875 81.35 M 76.975 89.05 C 70.475 90.85 71.775 100.375 78.5 100.375 C 85.05 100.375 86.55 91.25 80.35 89.15 C 79.55 88.875 77.8 88.825 76.975 89.05" fill="#006954"/>
</svg>