<svg xmlns="http://www.w3.org/2000/svg" xmlns:xlink="http://www.w3.org/1999/xlink" id="svg" width="400"
    height="629.059829059829" viewBox="0, 0, 400,629.059829059829">
    <g id="svgg">
        <path id="path0"
            d="M196.883 0.533 C 195.450 0.792,193.527 1.283,192.609 1.623 L 190.940 2.241 183.506 39.128 C 179.417 59.416,176.122 76.065,176.183 76.126 C 176.394 76.338,216.835 82.766,216.989 82.612 C 217.074 82.528,217.584 80.251,218.122 77.554 C 218.661 74.857,222.188 57.354,225.960 38.660 C 229.732 19.965,232.780 4.644,232.734 4.612 C 232.688 4.580,229.111 3.976,224.786 3.269 C 220.462 2.563,215.846 1.697,214.530 1.346 C 209.401 -0.021,201.862 -0.369,196.883 0.533 M184.957 4.828 C 172.885 11.373,165.091 22.810,163.072 36.939 C 162.764 39.094,163.255 73.683,163.599 74.119 C 163.780 74.348,172.995 75.666,173.172 75.489 C 173.486 75.175,187.783 4.200,187.625 3.740 C 187.568 3.574,186.368 4.064,184.957 4.828 M235.423 5.726 C 235.325 6.056,234.167 11.709,232.849 18.291 C 231.531 24.872,228.055 42.159,225.124 56.707 C 222.193 71.254,219.841 83.190,219.898 83.230 C 220.270 83.494,254.570 88.785,254.731 88.604 C 255.007 88.292,270.525 10.924,270.347 10.746 C 270.241 10.640,236.258 5.128,235.708 5.128 C 235.649 5.128,235.521 5.397,235.423 5.726 M272.859 12.960 C 272.661 13.883,270.104 26.537,267.175 41.080 C 264.247 55.623,260.873 72.368,259.678 78.291 C 258.482 84.214,257.564 89.122,257.637 89.198 C 257.817 89.386,299.573 96.097,299.710 95.960 C 299.909 95.761,315.502 17.952,315.370 17.820 C 315.202 17.653,274.942 11.306,273.960 11.292 C 273.347 11.284,273.157 11.572,272.859 12.960 M318.153 18.717 C 318.051 19.047,315.743 30.393,313.023 43.932 C 310.303 57.470,306.825 74.758,305.294 82.349 C 303.763 89.941,302.638 96.266,302.794 96.405 C 303.200 96.769,342.505 103.002,343.057 102.790 C 344.878 102.091,344.864 102.151,352.815 62.622 C 356.987 41.877,360.314 24.816,360.208 24.709 C 360.102 24.603,356.050 23.923,351.204 23.199 C 336.448 20.993,319.872 18.455,319.083 18.282 C 318.575 18.171,318.278 18.309,318.153 18.717 M362.109 30.165 C 361.519 33.036,358.876 46.154,356.235 59.316 C 353.594 72.479,350.838 86.140,350.110 89.675 C 349.383 93.210,348.904 96.056,349.046 96.000 C 349.188 95.944,356.588 87.513,365.489 77.265 C 374.391 67.017,384.336 55.577,387.589 51.843 C 390.842 48.109,393.504 44.944,393.504 44.808 C 393.504 43.432,386.567 35.878,382.465 32.787 C 377.785 29.261,370.470 26.167,364.411 25.152 L 363.180 24.946 362.109 30.165 M395.214 52.782 C 394.368 53.784,391.679 56.895,389.239 59.695 C 382.119 67.865,363.324 89.494,353.082 101.303 C 350.830 103.900,349.045 106.082,349.115 106.152 C 349.400 106.437,391.640 113.088,391.832 112.878 C 392.681 111.946,400.000 72.323,400.000 68.660 C 400.000 62.566,398.942 56.051,397.353 52.357 L 396.752 50.960 395.214 52.782 M163.944 84.246 C 164.153 88.657,164.776 109.687,164.809 113.480 C 164.826 115.328,164.922 115.873,165.145 115.385 C 165.420 114.783,171.966 82.841,171.966 82.102 C 171.966 81.943,170.120 81.508,167.865 81.136 L 163.764 80.459 163.944 84.246 M174.701 82.650 C 174.701 82.791,172.602 93.291,170.037 105.983 L 165.372 129.060 165.677 141.596 C 165.845 148.491,166.065 154.214,166.166 154.315 C 166.267 154.416,171.652 155.351,178.132 156.394 C 184.612 157.437,192.421 158.700,195.483 159.200 C 198.817 159.745,201.172 159.985,201.351 159.799 C 201.580 159.560,214.939 94.197,215.649 89.845 C 215.831 88.725,216.479 88.905,206.667 87.359 C 202.530 86.708,193.855 85.324,187.389 84.284 C 174.924 82.279,174.701 82.251,174.701 82.650 M215.800 103.011 C 214.273 110.569,211.088 126.368,208.722 138.120 C 206.356 149.872,204.344 159.736,204.252 160.041 C 204.112 160.504,204.661 160.685,207.598 161.145 C 209.530 161.448,217.396 162.709,225.076 163.948 C 232.757 165.187,239.089 166.151,239.147 166.092 C 239.253 165.982,250.924 108.347,252.552 99.894 C 253.061 97.253,253.301 95.221,253.125 95.052 C 252.957 94.892,249.821 94.289,246.154 93.711 C 236.817 92.241,220.516 89.629,219.459 89.434 L 218.576 89.271 215.800 103.011 M256.238 95.785 C 256.144 96.035,253.152 110.701,249.590 128.376 C 246.028 146.051,242.875 161.638,242.583 163.014 C 242.290 164.389,242.051 165.776,242.051 166.096 C 242.051 166.592,243.392 166.893,251.197 168.148 C 256.226 168.957,265.250 170.409,271.250 171.375 L 282.158 173.131 283.478 171.643 C 284.205 170.824,284.874 169.831,284.965 169.436 C 285.140 168.684,286.228 163.299,293.842 125.497 C 298.558 102.087,298.584 101.905,297.235 101.886 C 297.030 101.883,290.646 100.878,283.047 99.652 C 275.448 98.427,266.769 97.039,263.761 96.569 C 260.752 96.099,257.867 95.628,257.350 95.522 C 256.736 95.397,256.350 95.488,256.238 95.785 M301.195 102.622 C 301.193 102.829,289.282 161.853,288.900 163.550 C 288.693 164.468,288.585 165.280,288.660 165.355 C 288.815 165.510,290.571 163.504,329.192 119.039 C 334.142 113.340,338.137 108.633,338.070 108.581 C 337.943 108.480,331.706 107.457,313.846 104.607 C 307.923 103.662,302.654 102.804,302.137 102.699 C 301.620 102.595,301.196 102.560,301.195 102.622 M347.889 109.444 C 347.646 110.171,333.031 183.060,333.112 183.140 C 333.196 183.225,334.675 183.491,336.581 183.764 C 337.333 183.872,338.718 184.102,339.658 184.276 C 340.598 184.450,341.989 184.677,342.749 184.781 C 343.508 184.884,344.502 185.041,344.957 185.128 C 345.412 185.216,346.406 185.375,347.166 185.481 C 347.925 185.588,348.778 185.734,349.060 185.807 C 349.342 185.879,350.265 186.025,351.111 186.132 C 351.957 186.239,353.028 186.400,353.491 186.490 C 353.953 186.581,354.953 186.740,355.713 186.843 C 356.472 186.947,357.863 187.175,358.803 187.350 C 359.744 187.526,361.134 187.754,361.894 187.857 C 362.654 187.961,363.596 188.108,363.987 188.183 C 364.379 188.258,365.296 188.410,366.025 188.521 C 366.754 188.631,367.735 188.792,368.205 188.877 C 368.675 188.963,369.637 189.116,370.342 189.217 C 371.047 189.319,372.201 189.501,372.906 189.623 C 373.611 189.745,374.717 189.860,375.364 189.880 L 376.539 189.915 383.816 153.675 C 387.818 133.744,391.058 117.062,391.016 116.605 C 390.933 115.695,391.345 115.791,379.316 113.882 C 376.872 113.494,372.026 112.717,368.547 112.155 C 347.289 108.724,348.094 108.830,347.889 109.444 M337.381 119.388 C 334.398 122.779,330.003 127.829,319.145 140.342 C 314.087 146.171,308.539 152.556,306.815 154.530 C 299.959 162.385,291.132 172.564,289.877 174.062 C 288.671 175.502,288.602 175.688,289.114 176.114 C 289.424 176.371,289.693 176.519,289.711 176.444 C 289.740 176.321,290.751 176.437,294.317 176.976 C 294.952 177.072,295.792 177.212,296.183 177.287 C 296.575 177.363,297.517 177.509,298.277 177.613 C 299.037 177.716,300.427 177.944,301.368 178.120 C 302.308 178.295,303.698 178.523,304.458 178.627 C 305.218 178.730,306.212 178.887,306.667 178.974 C 307.122 179.062,308.116 179.221,308.875 179.328 C 309.635 179.434,310.487 179.581,310.769 179.653 C 311.051 179.725,311.974 179.871,312.821 179.978 C 313.667 180.085,314.737 180.246,315.200 180.337 C 315.663 180.427,316.663 180.586,317.422 180.690 C 318.182 180.793,319.573 181.021,320.513 181.197 C 322.520 181.571,325.024 181.943,325.964 182.006 C 326.576 182.048,327.124 179.596,332.832 151.282 C 336.243 134.359,339.202 119.746,339.407 118.808 C 339.907 116.526,339.895 116.529,337.381 119.388 M166.156 161.120 C 166.157 161.350,166.318 165.231,166.514 169.744 C 166.710 174.256,167.227 189.850,167.663 204.396 C 168.223 223.084,168.570 230.914,168.846 231.084 C 169.435 231.449,186.281 234.004,186.520 233.765 C 186.634 233.651,188.940 222.584,191.644 209.172 C 198.441 175.458,200.167 166.548,199.944 166.325 C 199.716 166.098,197.090 165.657,175.556 162.231 C 171.419 161.572,167.611 160.959,167.094 160.867 C 166.489 160.760,166.155 160.850,166.156 161.120 M202.926 167.137 C 202.833 167.443,200.979 176.520,198.805 187.310 C 196.631 198.099,193.614 213.074,192.100 220.588 C 190.587 228.101,189.420 234.320,189.508 234.408 C 189.653 234.554,195.437 235.509,216.218 238.822 C 224.718 240.177,224.306 240.251,224.891 237.265 C 225.093 236.231,228.113 221.242,231.600 203.956 C 235.088 186.671,237.870 172.457,237.783 172.370 C 237.592 172.179,232.604 171.352,212.650 168.200 C 208.983 167.620,205.333 167.020,204.539 166.865 C 203.345 166.631,203.066 166.679,202.926 167.137 M240.198 175.099 C 239.635 177.692,228.607 232.538,228.284 234.359 L 228.101 235.385 229.008 234.321 C 229.507 233.735,235.920 226.351,243.261 217.910 C 278.867 176.969,277.601 178.462,276.731 178.462 C 276.625 178.462,274.125 178.071,271.175 177.593 C 268.225 177.116,263.966 176.428,261.709 176.066 C 259.453 175.703,255.222 175.023,252.308 174.553 C 249.393 174.084,245.932 173.533,244.615 173.328 C 243.299 173.124,241.890 172.874,241.483 172.773 C 240.808 172.606,240.696 172.810,240.198 175.099 M12.289 176.713 C 5.800 178.789,1.039 184.286,0.316 190.533 C 0.159 191.885,0.024 284.797,0.015 397.003 L -0.001 601.014 1.062 604.353 C 4.885 616.366,11.753 623.680,23.419 628.162 L 25.812 629.081 96.410 628.985 L 167.009 628.889 170.256 627.294 C 179.603 622.705,186.627 613.698,188.744 603.590 C 189.456 600.190,188.829 573.085,186.828 520.855 C 186.720 518.034,186.166 502.419,185.597 486.154 C 185.028 469.889,184.496 455.274,184.415 453.675 C 184.333 452.077,184.039 443.769,183.760 435.214 C 183.481 426.658,183.170 417.504,183.068 414.872 C 182.867 409.687,181.999 383.705,181.703 374.017 C 181.602 370.726,181.371 365.573,181.190 362.564 C 181.009 359.556,180.704 352.017,180.513 345.812 C 180.322 339.607,180.093 332.684,180.003 330.427 C 179.914 328.171,179.747 323.709,179.632 320.513 C 179.517 317.316,179.222 313.624,178.976 312.308 C 178.730 310.991,178.552 309.896,178.581 309.874 C 178.609 309.851,184.300 314.369,191.226 319.912 C 198.153 325.456,203.938 329.859,204.082 329.697 C 204.284 329.470,207.647 313.126,207.968 310.808 C 208.005 310.547,207.803 310.294,207.521 310.246 C 207.239 310.197,206.387 310.062,205.627 309.945 C 204.868 309.828,203.874 309.660,203.419 309.573 C 202.964 309.485,201.970 309.325,201.210 309.217 C 199.781 309.013,198.742 308.851,196.838 308.532 C 196.226 308.430,195.303 308.276,194.786 308.190 C 194.269 308.104,193.346 307.947,192.735 307.840 C 192.124 307.733,191.098 307.577,190.455 307.493 C 189.812 307.409,188.851 307.265,188.318 307.174 C 182.645 306.203,178.515 305.561,177.816 305.541 C 177.555 305.533,176.891 304.533,176.340 303.319 C 175.789 302.104,174.950 300.495,174.475 299.743 C 173.985 298.965,173.678 298.062,173.765 297.649 C 175.830 287.822,185.319 240.248,185.231 240.160 C 185.164 240.092,182.651 239.644,179.648 239.165 C 176.645 238.685,172.918 238.087,171.365 237.837 L 168.542 237.381 168.734 241.511 C 168.914 245.408,170.256 290.860,170.256 293.072 L 170.256 294.106 168.803 292.850 C 168.004 292.160,164.427 289.257,160.855 286.400 C 157.282 283.542,144.282 273.134,131.966 263.270 C 119.650 253.405,107.957 244.041,105.983 242.460 C 104.009 240.879,102.085 239.330,101.709 239.017 C 101.333 238.705,89.718 229.383,75.897 218.303 C 62.077 207.222,45.633 194.009,39.355 188.940 C 23.051 175.774,19.804 174.308,12.289 176.713 M287.521 179.104 C 287.521 179.269,284.368 195.058,280.513 214.192 C 276.658 233.326,273.505 249.229,273.506 249.533 C 273.507 250.055,311.172 256.464,311.617 256.018 C 311.747 255.889,314.863 240.558,322.883 200.601 L 326.022 184.963 324.977 184.781 C 310.759 182.305,287.521 178.783,287.521 179.104 M276.867 188.980 C 275.451 190.622,272.077 194.514,269.368 197.628 C 266.660 200.742,262.448 205.589,260.008 208.397 C 257.567 211.206,253.430 215.966,250.814 218.974 C 228.222 244.952,229.948 242.863,230.843 243.137 C 232.019 243.496,266.685 248.985,266.834 248.836 C 266.905 248.764,269.272 237.247,272.093 223.242 C 274.914 209.237,277.755 195.162,278.406 191.966 C 279.057 188.769,279.556 186.118,279.516 186.074 C 279.475 186.031,278.284 187.338,276.867 188.980 M331.868 188.787 C 331.574 190.347,328.399 206.162,324.812 223.932 C 321.226 241.701,318.291 256.471,318.291 256.753 C 318.290 257.579,361.096 264.393,361.441 263.623 C 361.575 263.323,363.078 256.000,364.782 247.350 C 366.485 238.701,368.003 231.393,368.154 231.111 C 368.533 230.403,375.920 193.239,375.718 193.054 C 375.629 192.972,366.248 191.419,354.872 189.603 C 343.496 187.787,333.786 186.222,333.295 186.125 C 332.421 185.953,332.391 186.010,331.868 188.787 M188.033 240.769 C 188.032 240.816,185.659 252.623,182.759 267.006 C 179.860 281.389,177.534 293.203,177.590 293.259 C 177.646 293.315,183.211 287.012,189.957 279.253 C 196.703 271.494,206.030 260.769,210.683 255.421 C 215.336 250.072,219.100 245.653,219.047 245.600 C 218.958 245.511,214.120 244.711,195.691 241.738 C 189.597 240.754,188.036 240.557,188.033 240.769 M227.880 245.784 C 226.890 247.387,215.199 308.399,215.856 308.537 C 216.255 308.621,219.043 309.078,222.051 309.552 C 225.060 310.027,230.444 310.884,234.017 311.458 C 241.355 312.636,250.479 314.091,252.380 314.388 C 253.504 314.563,253.670 314.495,253.837 313.788 C 254.347 311.639,265.948 253.711,266.043 252.836 C 266.173 251.655,265.909 251.575,257.607 250.278 C 254.974 249.866,250.051 249.084,246.667 248.539 C 243.282 247.995,238.051 247.157,235.043 246.679 C 232.034 246.201,229.236 245.733,228.824 245.639 C 228.413 245.545,227.988 245.610,227.880 245.784 M272.888 253.097 C 272.710 253.321,271.936 256.658,271.168 260.513 C 270.401 264.368,267.609 278.280,264.964 291.428 C 262.320 304.577,260.275 315.435,260.420 315.557 C 260.565 315.679,261.838 315.957,263.248 316.175 C 266.882 316.737,285.924 319.788,293.782 321.067 C 296.192 321.459,298.254 321.689,298.365 321.578 C 298.476 321.467,301.300 307.797,304.639 291.201 C 307.978 274.604,310.813 260.619,310.939 260.123 C 311.274 258.795,313.122 259.174,282.906 254.368 C 278.017 253.590,273.836 252.895,273.615 252.822 C 273.393 252.750,273.067 252.873,272.888 253.097 M210.218 265.686 C 205.444 271.175,200.385 277.002,198.974 278.634 C 197.564 280.266,194.414 283.895,191.975 286.698 C 189.536 289.501,185.486 294.155,182.976 297.041 C 180.466 299.926,178.469 302.344,178.539 302.414 C 178.657 302.532,183.184 303.290,196.752 305.464 C 199.761 305.947,203.658 306.581,205.412 306.875 C 207.167 307.169,208.649 307.357,208.707 307.294 C 208.764 307.231,210.768 297.410,213.160 285.470 C 215.553 273.530,217.868 261.994,218.305 259.835 C 218.742 257.676,219.054 255.864,218.999 255.808 C 218.943 255.752,214.992 260.198,210.218 265.686 M317.443 260.598 C 316.856 262.356,305.001 322.566,305.206 322.744 C 305.351 322.870,307.162 323.237,309.231 323.560 C 311.299 323.882,315.838 324.604,319.316 325.164 C 322.795 325.724,327.487 326.478,329.744 326.841 C 332.000 327.204,336.723 327.967,340.240 328.537 C 343.756 329.106,346.999 329.573,347.446 329.573 C 348.256 329.573,361.101 268.589,360.578 267.226 C 360.474 266.956,358.191 266.442,354.480 265.853 C 346.285 264.552,330.433 262.002,324.324 261.002 C 318.533 260.054,317.642 260.002,317.443 260.598 M214.589 311.699 C 214.149 312.412,209.870 334.790,210.130 335.023 C 210.294 335.170,213.120 337.420,216.410 340.022 C 219.701 342.625,227.276 348.642,233.244 353.394 C 242.931 361.108,244.113 361.952,244.271 361.273 C 245.142 357.541,252.972 318.060,252.890 317.816 C 252.831 317.640,252.561 317.461,252.289 317.419 C 252.017 317.377,251.179 317.239,250.427 317.114 C 249.675 316.988,248.534 316.814,247.891 316.728 C 247.248 316.641,246.325 316.503,245.840 316.420 C 244.645 316.216,242.749 315.898,241.709 315.726 C 239.460 315.356,238.690 315.238,237.265 315.045 C 236.419 314.931,235.496 314.776,235.214 314.701 C 234.932 314.626,234.079 314.477,233.320 314.370 C 232.560 314.264,231.560 314.101,231.097 314.008 C 230.635 313.916,229.641 313.763,228.889 313.669 C 228.137 313.576,227.143 313.426,226.680 313.336 C 226.218 313.247,225.289 313.092,224.615 312.991 C 223.942 312.891,223.013 312.735,222.550 312.644 C 222.088 312.554,221.017 312.386,220.171 312.270 C 219.325 312.155,218.331 312.004,217.962 311.934 C 215.884 311.539,214.737 311.459,214.589 311.699 M259.324 319.387 C 258.925 321.086,249.915 366.070,249.915 366.359 C 249.916 366.879,275.151 386.812,276.340 387.231 C 276.953 387.448,278.220 387.721,279.155 387.838 C 280.090 387.955,281.470 388.143,282.222 388.256 C 285.135 388.693,284.860 389.005,285.882 384.103 C 289.723 365.664,297.772 325.009,297.613 324.850 C 297.413 324.649,297.281 324.622,294.872 324.290 C 294.120 324.186,293.126 324.027,292.663 323.937 C 292.201 323.846,291.271 323.690,290.598 323.590 C 289.925 323.489,288.996 323.331,288.533 323.239 C 288.071 323.146,287.077 322.994,286.325 322.900 C 285.573 322.806,284.579 322.656,284.116 322.567 C 283.654 322.478,282.724 322.323,282.051 322.222 C 281.378 322.122,280.455 321.968,280.000 321.880 C 279.545 321.793,278.551 321.633,277.791 321.525 C 275.851 321.248,272.446 320.695,269.316 320.147 C 268.705 320.040,267.821 319.901,267.350 319.838 C 265.875 319.640,263.766 319.311,262.906 319.145 C 259.828 318.552,259.515 318.574,259.324 319.387 M303.796 328.298 C 303.497 329.657,301.185 341.077,298.657 353.675 C 296.130 366.274,293.456 379.543,292.714 383.162 C 291.972 386.782,291.462 389.763,291.580 389.787 C 291.698 389.811,292.103 389.870,292.479 389.917 C 292.855 389.965,294.085 390.173,295.214 390.379 C 296.342 390.585,297.957 390.849,298.803 390.965 C 301.008 391.266,301.472 391.340,303.761 391.752 C 304.889 391.955,306.504 392.216,307.350 392.332 C 308.197 392.448,309.197 392.598,309.573 392.665 C 309.949 392.732,310.718 392.856,311.282 392.941 C 311.846 393.026,313.231 393.261,314.359 393.463 C 315.487 393.666,317.103 393.926,317.949 394.041 C 320.156 394.344,320.619 394.417,322.906 394.830 C 324.034 395.033,325.573 395.283,326.325 395.384 C 327.077 395.486,328.247 395.647,328.924 395.740 C 332.786 396.276,337.589 386.738,339.489 374.758 C 340.202 370.267,344.212 349.461,346.483 338.468 C 347.124 335.369,347.619 332.806,347.585 332.774 C 347.512 332.706,345.337 332.343,343.617 332.112 C 342.975 332.026,342.051 331.887,341.566 331.805 C 341.081 331.722,340.222 331.577,339.658 331.483 C 339.094 331.389,338.094 331.222,337.436 331.111 C 335.635 330.808,334.670 330.658,333.149 330.441 C 332.389 330.333,331.395 330.173,330.940 330.085 C 330.485 329.998,329.562 329.844,328.889 329.744 C 328.216 329.643,327.286 329.486,326.824 329.394 C 326.361 329.302,325.391 329.150,324.666 329.057 C 323.942 328.963,322.942 328.817,322.444 328.732 C 318.514 328.061,315.754 327.613,314.003 327.364 C 313.244 327.256,312.250 327.096,311.795 327.009 C 311.340 326.921,310.417 326.767,309.744 326.667 C 309.070 326.566,308.141 326.409,307.679 326.317 C 307.216 326.225,306.275 326.077,305.588 325.988 L 304.339 325.826 303.796 328.298 M281.368 391.786 C 281.838 392.177,282.627 392.798,283.121 393.166 L 284.020 393.834 284.234 392.760 C 284.496 391.450,284.656 391.577,282.393 391.302 L 280.513 391.073 281.368 391.786 M290.181 395.641 C 289.545 398.915,289.428 398.715,293.219 400.876 C 301.247 405.453,311.759 406.046,320.416 402.408 C 322.684 401.455,326.828 399.006,326.835 398.614 C 326.838 398.429,292.317 392.800,291.262 392.814 C 290.868 392.819,290.586 393.556,290.181 395.641 "
            stroke="none" fill="#4D87A1" fill-rule="evenodd" />
    </g>
</svg>