<svg xmlns="http://www.w3.org/2000/svg" xmlns:xlink="http://www.w3.org/1999/xlink" id="svg" width="400"
    height="629.059829059829" viewBox="0, 0, 400,629.059829059829">
    <g id="svgg">
        <path id="path0"
            d="M196.906 0.529 C 185.488 2.597,174.930 10.094,168.645 20.596 C 167.198 23.016,166.881 23.932,167.494 23.932 C 167.666 23.932,169.935 24.914,172.536 26.115 C 178.154 28.709,182.072 30.507,195.726 36.754 C 205.912 41.413,209.916 43.247,218.120 47.008 C 220.470 48.086,224.316 49.850,226.667 50.927 C 237.927 56.090,239.635 56.889,239.564 56.961 C 239.521 57.003,235.179 56.595,229.914 56.054 C 224.649 55.513,207.513 53.752,191.834 52.141 C 176.154 50.529,163.250 49.285,163.159 49.377 C 162.915 49.620,163.551 76.145,163.806 76.400 C 163.925 76.518,181.848 84.306,203.635 93.705 C 225.422 103.104,245.440 111.740,248.120 112.896 C 253.911 115.395,253.858 115.289,249.658 115.978 C 247.825 116.278,233.402 118.704,217.607 121.367 C 201.812 124.031,183.658 127.089,177.265 128.163 L 165.641 130.115 165.532 132.152 C 165.408 134.463,166.349 167.577,166.833 177.949 C 167.008 181.709,167.258 189.363,167.387 194.957 L 167.623 205.128 169.709 205.134 C 170.856 205.137,189.256 205.442,210.598 205.813 C 231.940 206.183,252.004 206.488,255.185 206.491 C 261.946 206.497,262.095 206.558,257.265 207.342 C 256.305 207.498,254.066 207.893,253.218 208.056 C 252.827 208.132,251.955 208.276,251.282 208.376 C 250.609 208.476,249.680 208.638,249.217 208.736 C 248.755 208.833,247.838 208.995,247.179 209.096 C 245.209 209.398,242.831 209.804,241.252 210.108 C 240.861 210.183,239.989 210.327,239.316 210.427 C 238.643 210.528,237.714 210.690,237.251 210.787 C 236.789 210.884,235.949 211.033,235.385 211.118 C 234.821 211.203,233.981 211.349,233.518 211.442 C 233.055 211.536,232.126 211.694,231.453 211.795 C 230.780 211.895,229.857 212.049,229.402 212.137 C 228.947 212.224,228.024 212.378,227.350 212.479 C 226.677 212.579,225.748 212.738,225.285 212.831 C 224.823 212.925,223.983 213.071,223.419 213.156 C 222.855 213.240,222.067 213.379,221.667 213.464 C 221.268 213.550,220.345 213.715,219.616 213.832 C 218.887 213.949,217.771 214.128,217.136 214.230 C 216.501 214.332,215.655 214.485,215.256 214.570 C 214.857 214.655,213.991 214.807,213.333 214.908 C 211.363 215.210,208.984 215.616,207.406 215.920 C 207.015 215.995,206.143 216.139,205.470 216.239 C 204.797 216.340,203.868 216.502,203.405 216.599 C 202.943 216.696,202.103 216.845,201.538 216.930 C 200.974 217.015,200.134 217.161,199.672 217.254 C 199.209 217.348,198.280 217.506,197.607 217.607 C 196.934 217.707,196.011 217.861,195.556 217.949 C 195.101 218.036,194.177 218.190,193.504 218.291 C 192.831 218.391,191.902 218.550,191.439 218.643 C 190.977 218.737,190.137 218.883,189.573 218.968 C 189.009 219.052,188.169 219.201,187.706 219.299 C 187.243 219.396,186.314 219.558,185.641 219.658 C 184.968 219.759,184.097 219.902,183.705 219.978 C 182.127 220.282,179.748 220.688,177.778 220.990 C 177.120 221.090,176.203 221.253,175.740 221.350 C 175.278 221.447,174.348 221.609,173.675 221.709 C 173.002 221.810,172.131 221.954,171.739 222.029 C 171.347 222.105,170.439 222.260,169.721 222.374 C 169.003 222.488,168.362 222.635,168.296 222.701 C 168.230 222.767,168.283 226.034,168.412 229.962 L 168.648 237.103 221.760 275.352 C 250.971 296.389,274.872 313.660,274.872 313.733 C 274.872 313.805,274.390 313.615,273.802 313.311 C 273.214 313.006,270.252 311.561,267.221 310.098 C 264.190 308.635,255.940 304.629,248.889 301.196 C 225.758 289.932,222.528 288.360,209.915 282.221 C 197.062 275.965,190.817 272.929,177.297 266.361 C 172.990 264.269,169.445 262.597,169.420 262.646 C 169.395 262.695,169.559 268.658,169.784 275.897 C 170.009 283.137,170.208 290.195,170.225 291.583 L 170.256 294.106 168.803 292.850 C 168.004 292.160,164.427 289.257,160.855 286.400 C 157.282 283.542,144.282 273.134,131.966 263.270 C 119.650 253.405,107.957 244.041,105.983 242.460 C 104.009 240.879,102.085 239.330,101.709 239.017 C 101.333 238.705,89.718 229.383,75.897 218.303 C 62.077 207.222,45.633 194.009,39.355 188.940 C 27.107 179.050,25.291 177.778,21.930 176.740 C 12.252 173.749,1.461 180.636,0.316 190.533 C 0.159 191.885,0.024 284.797,0.015 397.003 L -0.001 601.014 1.062 604.353 C 4.885 616.366,11.753 623.680,23.419 628.162 L 25.812 629.081 96.410 628.985 L 167.009 628.889 170.256 627.294 C 179.603 622.705,186.627 613.698,188.744 603.590 C 189.456 600.190,188.829 573.085,186.828 520.855 C 186.720 518.034,186.166 502.419,185.597 486.154 C 185.028 469.889,184.496 455.274,184.415 453.675 C 184.333 452.077,184.039 443.769,183.760 435.214 C 183.481 426.658,183.170 417.504,183.068 414.872 C 182.867 409.687,181.999 383.705,181.703 374.017 C 181.602 370.726,181.371 365.573,181.190 362.564 C 181.009 359.556,180.704 352.017,180.513 345.812 C 180.322 339.607,180.093 332.684,180.003 330.427 C 179.914 328.171,179.747 323.709,179.632 320.513 C 179.517 317.316,179.222 313.624,178.976 312.308 C 178.730 310.991,178.552 309.894,178.581 309.868 C 178.609 309.843,182.878 313.227,188.068 317.390 C 193.257 321.552,204.468 330.496,212.981 337.265 C 244.222 362.108,249.774 366.536,268.656 381.666 C 279.246 390.151,288.630 397.676,289.511 398.387 C 299.454 406.423,314.525 406.942,325.464 399.625 C 332.236 395.096,339.153 384.990,337.225 382.444 C 336.871 381.977,331.727 375.621,325.794 368.319 C 292.283 327.078,286.173 319.525,286.254 319.447 C 286.293 319.409,291.402 320.732,297.607 322.385 C 337.337 332.971,346.773 335.411,346.997 335.157 C 347.136 335.000,351.896 311.641,357.575 283.248 C 363.255 254.855,368.041 231.316,368.211 230.940 C 368.602 230.075,373.484 205.504,373.299 205.331 C 373.224 205.261,353.624 205.002,329.744 204.757 L 286.325 204.309 331.505 196.778 L 376.685 189.246 378.820 178.548 C 379.994 172.664,380.894 167.793,380.819 167.724 C 380.745 167.655,378.530 166.672,375.897 165.538 C 373.265 164.405,368.034 162.141,364.274 160.508 C 354.845 156.412,347.806 153.367,343.761 151.631 C 341.880 150.825,337.265 148.824,333.504 147.186 C 329.744 145.547,325.128 143.547,323.248 142.741 C 321.368 141.936,316.752 139.932,312.991 138.290 C 309.231 136.647,305.154 134.878,303.932 134.359 C 302.709 133.840,298.094 131.840,293.675 129.915 C 289.256 127.989,284.641 125.989,283.419 125.470 C 282.197 124.951,277.581 122.950,273.162 121.024 C 268.744 119.097,264.282 117.162,263.248 116.724 C 262.214 116.285,261.467 115.920,261.588 115.912 C 261.710 115.904,274.402 114.358,289.793 112.477 C 305.185 110.596,324.360 108.255,332.406 107.275 L 347.034 105.492 352.235 107.238 C 357.502 109.007,380.502 116.865,386.908 119.085 C 390.013 120.162,390.415 120.231,390.563 119.720 C 391.192 117.554,395.955 92.593,395.774 92.412 C 395.650 92.288,385.819 93.769,373.928 95.703 C 362.037 97.637,351.308 99.379,350.085 99.572 L 347.863 99.924 300.104 79.630 C 273.836 68.468,252.392 59.289,252.450 59.231 C 252.507 59.174,259.537 59.673,268.072 60.341 C 354.204 67.084,391.945 70.032,395.214 70.273 C 396.624 70.376,398.278 70.538,398.889 70.631 L 400.000 70.800 400.000 67.733 C 400.000 50.964,390.792 36.099,375.941 28.892 C 370.674 26.335,367.680 25.641,351.624 23.249 C 306.497 16.528,219.532 2.638,214.701 1.380 C 209.320 -0.022,201.904 -0.376,196.906 0.529 "
            stroke="none" fill="#4D87A1" fill-rule="evenodd" />
    </g>
</svg>