<svg xmlns="http://www.w3.org/2000/svg" viewBox="0, 0, 400,629.059829059829">
        <path d="M181.595 6.855 C 178.229 9.073,177.505 9.872,177.229 11.673 L 177.054 12.821 229.873 35.206 C 258.924 47.519,282.651 57.634,282.599 57.686 C 282.548 57.737,256.057 51.333,223.731 43.455 L 164.957 29.131 164.560 30.046 C 163.693 32.039,163.035 36.315,162.844 41.198 L 162.643 46.328 214.142 70.571 C 242.467 83.904,265.585 94.871,265.514 94.942 C 265.424 95.032,170.811 67.844,163.963 65.759 C 163.350 65.572,163.329 81.077,163.941 82.067 C 164.024 82.201,186.470 94.363,213.821 109.095 C 241.172 123.827,263.515 135.915,263.473 135.957 C 263.431 135.999,241.187 128.038,214.042 118.265 C 186.898 108.493,164.627 100.558,164.552 100.633 C 164.381 100.804,164.987 119.984,165.167 120.123 C 165.240 120.179,184.627 131.828,208.251 146.010 C 231.874 160.191,251.175 171.828,251.141 171.868 C 251.107 171.908,231.890 163.617,208.436 153.444 C 184.982 143.271,165.710 135.031,165.608 135.133 C 165.409 135.331,165.991 155.516,166.200 155.701 C 166.269 155.762,183.248 167.774,203.932 182.395 C 244.265 210.905,244.209 210.864,239.316 208.278 C 224.906 200.661,166.734 170.588,166.624 170.698 C 166.547 170.775,166.638 173.899,166.827 177.641 C 167.016 181.383,167.172 186.074,167.175 188.066 L 167.179 191.687 200.749 218.664 C 219.212 233.501,234.636 245.924,235.023 246.270 C 236.070 247.205,236.461 247.441,200.684 225.498 C 174.992 209.740,168.007 205.598,167.909 206.062 C 167.839 206.387,167.896 211.321,168.034 217.026 L 168.285 227.400 198.501 255.275 C 215.121 270.606,228.718 283.217,228.718 283.301 C 228.718 283.498,230.120 284.487,197.436 261.240 C 172.602 243.577,169.044 241.152,168.937 241.811 C 168.869 242.225,168.925 246.742,169.060 251.847 L 169.307 261.131 194.518 289.283 C 208.384 304.767,219.689 317.485,219.641 317.546 C 219.592 317.606,211.239 310.799,201.078 302.418 C 190.917 294.037,182.396 287.179,182.142 287.179 C 181.888 287.179,179.786 289.487,177.470 292.308 C 173.611 297.007,172.650 297.970,172.650 297.134 C 172.650 296.340,166.425 290.736,159.079 284.917 C 149.260 277.138,63.582 208.450,42.786 191.685 C 27.094 179.036,25.376 177.805,21.930 176.740 C 12.224 173.741,1.468 180.610,0.327 190.539 C 0.129 192.252,0.004 272.228,0.003 397.312 L 0.000 601.292 1.384 605.305 C 5.342 616.784,11.853 623.622,23.006 628.015 L 25.671 629.065 96.340 628.977 L 167.009 628.889 169.638 627.638 C 179.620 622.891,186.862 613.656,188.859 603.127 C 189.580 599.327,188.857 575.878,182.893 409.744 C 181.962 383.795,180.819 351.949,180.354 338.974 C 179.505 315.320,179.183 311.200,177.897 307.549 C 177.450 306.278,177.456 306.236,178.029 306.736 C 179.822 308.300,273.458 385.405,279.658 390.423 C 283.701 393.695,287.932 397.122,289.060 398.039 C 297.141 404.604,309.975 406.734,318.956 403.002 L 320.009 402.564 281.167 359.145 C 259.803 335.265,242.070 315.426,241.760 315.059 C 241.450 314.692,241.966 314.943,242.906 315.617 C 256.339 325.239,337.312 382.669,337.605 382.782 C 338.040 382.949,338.575 380.898,339.134 376.923 C 339.319 375.607,339.868 372.376,340.354 369.744 C 340.840 367.111,341.304 364.419,341.385 363.761 L 341.533 362.564 296.239 320.855 C 245.592 274.217,245.650 274.271,246.838 274.947 C 247.308 275.214,269.972 289.091,297.203 305.785 C 324.434 322.478,346.795 336.054,346.895 335.954 C 346.995 335.854,347.959 331.401,349.039 326.057 L 351.002 316.342 299.587 275.009 C 243.818 230.174,246.515 232.351,247.009 232.573 C 247.197 232.658,271.857 245.459,301.810 261.021 C 331.762 276.583,356.315 289.258,356.371 289.188 C 356.477 289.056,360.000 271.456,360.000 271.062 C 360.000 270.940,333.851 252.333,301.892 229.711 C 269.932 207.090,243.824 188.541,243.873 188.491 C 243.923 188.442,271.418 200.310,304.973 214.866 L 365.983 241.331 367.028 236.306 C 367.602 233.543,368.171 231.051,368.291 230.769 C 368.695 229.823,369.970 222.859,369.814 222.453 C 369.729 222.232,343.038 206.051,310.501 186.496 C 277.963 166.940,251.376 150.906,251.417 150.864 C 251.458 150.822,279.099 160.729,312.840 172.880 C 346.581 185.032,374.486 194.989,374.850 195.008 C 375.463 195.040,378.719 181.196,378.787 178.266 C 378.801 177.670,368.960 172.257,316.953 144.249 C 282.935 125.929,255.140 110.902,255.185 110.856 C 255.231 110.810,284.370 119.182,319.940 129.462 C 355.509 139.742,384.690 148.073,384.787 147.977 C 385.024 147.740,388.001 132.873,387.858 132.641 C 387.796 132.541,357.518 118.232,320.574 100.845 C 283.629 83.457,253.425 69.205,253.454 69.173 C 253.483 69.141,285.034 76.792,323.567 86.177 C 362.100 95.561,393.698 103.169,393.784 103.082 C 393.870 102.996,394.669 99.291,395.560 94.849 L 397.180 86.771 395.086 85.839 C 393.934 85.327,367.651 74.157,336.679 61.017 C 305.707 47.877,280.413 37.079,280.471 37.022 C 280.529 36.964,298.153 39.533,319.636 42.732 C 341.119 45.930,358.952 48.547,359.265 48.547 C 359.810 48.547,362.688 31.634,362.222 31.168 C 362.049 30.995,186.546 4.814,185.445 4.797 C 185.055 4.791,183.322 5.717,181.595 6.855 "
            fill="#003B49"/>
</svg>