<svg xmlns="http://www.w3.org/2000/svg" viewBox="0, 0, 400,629.059829059829">
        <path d="M197.036 0.506 C 184.258 2.825,172.612 11.846,166.918 23.836 C 166.067 25.627,165.703 26.855,165.734 27.827 C 166.208 42.783,175.584 290.171,175.674 290.081 C 175.815 289.940,219.055 2.620,218.958 2.468 C 218.809 2.235,211.884 0.705,209.462 0.370 C 205.956 -0.115,200.108 -0.051,197.036 0.506 M245.292 7.265 C 245.021 8.004,184.956 276.352,185.044 276.429 C 185.090 276.470,210.061 217.636,240.535 145.687 L 295.942 14.872 295.065 14.615 C 294.076 14.326,246.824 6.838,245.987 6.838 C 245.691 6.838,245.378 7.030,245.292 7.265 M272.308 118.880 C 191.658 276.773,189.076 281.841,189.554 281.335 C 189.803 281.071,232.202 225.547,283.775 157.949 C 335.347 90.350,378.207 34.175,379.019 33.115 L 380.495 31.186 378.025 29.869 C 371.780 26.538,368.959 25.831,351.624 23.251 C 343.915 22.104,334.717 20.711,331.185 20.155 C 327.653 19.600,324.423 19.147,324.006 19.149 C 323.342 19.152,316.913 31.553,272.308 118.880 M301.026 164.660 C 247.624 224.931,202.009 276.421,199.658 279.082 L 195.385 283.921 198.632 281.346 C 200.419 279.931,243.702 245.872,294.817 205.660 C 345.932 165.448,387.889 132.224,388.054 131.829 C 389.371 128.689,400.000 72.337,399.994 68.531 C 399.986 63.805,398.795 54.913,398.189 55.060 C 398.151 55.069,354.427 104.389,301.026 164.660 M290.480 227.345 C 240.868 260.604,200.180 287.911,200.063 288.028 C 199.726 288.365,196.844 289.635,286.521 249.938 L 372.122 212.046 376.424 190.553 C 378.791 178.732,380.829 168.560,380.953 167.949 C 381.078 167.338,381.068 166.846,380.932 166.856 C 380.795 166.866,340.092 194.086,290.480 227.345 M12.289 176.713 C 5.748 178.806,1.052 184.234,0.327 190.539 C 0.129 192.252,0.004 272.228,0.003 397.312 L 0.000 601.292 1.384 605.305 C 5.342 616.784,11.853 623.622,23.006 628.015 L 25.671 629.065 96.340 628.977 L 167.009 628.889 169.638 627.638 C 179.620 622.891,186.862 613.656,188.859 603.127 C 189.580 599.327,188.857 575.878,182.893 409.744 C 181.962 383.795,180.819 351.949,180.354 338.974 C 178.995 301.091,178.768 300.514,159.052 284.896 C 149.255 277.134,63.556 208.430,42.786 191.685 C 34.634 185.114,27.095 179.214,26.033 178.574 C 21.949 176.114,16.477 175.373,12.289 176.713 M289.147 263.539 C 246.324 279.051,211.324 291.773,211.370 291.811 C 211.457 291.882,360.445 267.971,360.603 267.860 C 360.732 267.770,367.190 235.446,367.091 235.386 C 367.046 235.359,331.971 248.028,289.147 263.539 M279.829 294.361 C 238.838 297.888,204.915 300.830,204.444 300.900 C 203.974 300.969,236.282 303.617,276.239 306.784 C 316.197 309.951,349.517 312.622,350.284 312.720 L 351.679 312.898 354.130 300.637 C 355.478 293.893,356.581 288.261,356.581 288.120 C 356.581 287.741,359.972 287.465,279.829 294.361 M182.299 306.967 C 182.115 307.084,209.753 329.103,243.717 355.897 L 305.470 404.615 309.573 404.581 C 324.641 404.454,337.096 392.976,339.071 377.395 L 339.358 375.132 262.414 341.712 C 220.095 323.330,184.832 307.945,184.052 307.522 C 183.272 307.100,182.483 306.850,182.299 306.967 M202.906 308.210 C 203.094 308.309,234.632 319.363,272.991 332.773 L 342.735 357.156 344.663 347.491 C 345.723 342.175,346.919 336.332,347.321 334.506 C 347.723 332.679,348.009 331.156,347.957 331.121 C 347.826 331.031,205.230 308.327,203.761 308.162 C 203.103 308.088,202.718 308.110,202.906 308.210 "
            fill="#003B49"/>
</svg>