<svg xmlns="http://www.w3.org/2000/svg" viewBox="0, 0, 400,629.059829059829">
        <path d="M204.558 114.364 C 204.684 177.321,204.788 251.768,204.790 279.800 L 204.793 330.769 210.152 335.043 C 223.155 345.411,225.804 347.433,224.188 345.760 L 222.564 344.079 222.564 294.176 C 222.564 266.730,222.462 189.958,222.336 123.573 L 222.109 2.873 218.319 2.112 C 216.235 1.694,213.530 1.130,212.308 0.859 C 211.085 0.589,208.791 0.261,207.208 0.132 L 204.331 -0.103 204.558 114.364 M181.513 6.909 C 171.878 13.257,164.946 24.285,163.216 36.017 C 162.743 39.229,162.743 41.544,163.216 59.194 C 164.067 90.920,166.438 169.007,166.837 178.462 C 167.316 189.831,170.317 293.323,170.179 293.737 C 170.120 293.912,169.153 293.226,168.028 292.213 C 166.903 291.201,162.214 287.388,157.607 283.741 C 147.897 276.054,66.730 210.981,43.635 192.368 C 27.069 179.017,25.390 177.809,21.930 176.740 C 12.224 173.741,1.468 180.610,0.327 190.539 C 0.129 192.252,0.004 272.228,0.003 397.312 L 0.000 601.292 1.384 605.305 C 5.342 616.784,11.853 623.622,23.006 628.015 L 25.671 629.065 96.340 628.977 L 167.009 628.889 169.638 627.638 C 179.620 622.891,186.862 613.656,188.859 603.127 C 189.627 599.079,188.581 566.621,180.340 338.803 C 179.792 323.648,179.309 314.114,179.007 312.479 C 178.746 311.068,178.555 309.895,178.582 309.872 C 178.610 309.848,183.017 313.352,188.376 317.658 L 198.120 325.488 198.217 324.368 C 198.325 323.118,185.006 5.063,184.838 4.895 C 184.780 4.837,183.283 5.743,181.513 6.909 M243.077 6.663 C 243.077 6.871,240.077 83.300,236.410 176.507 C 232.744 269.713,229.746 347.014,229.748 348.286 L 229.752 350.598 238.531 357.607 C 251.502 367.962,251.250 367.783,247.527 363.987 L 244.284 360.681 251.238 188.289 C 255.062 93.474,258.273 14.282,258.372 12.308 L 258.552 8.718 250.815 7.502 C 245.679 6.695,243.077 6.413,243.077 6.663 M282.251 13.721 C 282.147 14.354,275.981 94.103,268.547 190.940 C 261.114 287.778,254.945 367.778,254.838 368.718 L 254.645 370.427 259.474 374.290 C 262.130 376.414,264.491 378.225,264.722 378.313 C 265.056 378.441,294.831 17.622,294.716 14.840 C 294.703 14.520,292.198 14.047,283.698 12.760 C 282.485 12.576,282.432 12.611,282.251 13.721 M321.368 19.123 C 321.368 19.350,311.291 102.102,298.974 203.016 C 286.658 303.930,276.581 386.827,276.581 387.232 C 276.581 388.062,285.921 395.811,286.062 395.099 C 286.106 394.880,296.372 310.778,308.877 208.205 C 321.382 105.632,331.667 21.381,331.734 20.979 C 331.848 20.299,331.608 20.211,328.236 19.698 C 321.746 18.710,321.368 18.678,321.368 19.123 M330.477 213.819 C 313.416 317.817,299.463 403.086,299.472 403.305 C 299.502 404.082,308.034 405.277,308.034 404.504 C 308.034 404.297,321.880 319.360,338.803 215.757 C 355.726 112.153,369.573 27.154,369.573 26.869 C 369.573 26.277,367.962 25.772,364.082 25.147 L 361.498 24.731 330.477 213.819 M396.437 51.282 C 395.434 55.429,324.793 399.779,324.920 399.905 C 325.167 400.153,328.824 397.232,330.648 395.331 L 332.236 393.675 365.780 227.692 C 384.229 136.402,399.322 61.120,399.320 60.399 C 399.312 57.577,396.819 49.699,396.437 51.282 "
            fill="#6D335E"/>
</svg>