<svg xmlns="http://www.w3.org/2000/svg" xmlns:xlink="http://www.w3.org/1999/xlink" width="151.594" height="50" viewBox="0 0 151.594 50"><defs><linearGradient id="a" x1="0.022" y1="0.246" x2="0.883" y2="0.643" gradientUnits="objectBoundingBox"><stop offset="0" stop-color="#335ca8"/><stop offset="0.203" stop-color="#3258a1"/><stop offset="0.418" stop-color="#314f93"/><stop offset="0.638" stop-color="#2e407e"/><stop offset="0.862" stop-color="#272c63"/><stop offset="1" stop-color="#211d51"/></linearGradient><radialGradient id="b" cx="0.5" cy="0.503" r="0.711" gradientTransform="translate(0.214) scale(0.573 1)" gradientUnits="objectBoundingBox"><stop offset="0" stop-color="#e8b920"/><stop offset="1" stop-color="#ca9a2c"/></radialGradient><linearGradient id="c" x1="0.265" y1="0.783" x2="0.876" y2="0.007" gradientUnits="objectBoundingBox"><stop offset="0" stop-color="#211d51"/><stop offset="0.139" stop-color="#272c63"/><stop offset="0.362" stop-color="#2e407e"/><stop offset="0.582" stop-color="#314f93"/><stop offset="0.797" stop-color="#3258a1"/><stop offset="1" stop-color="#335ca8"/></linearGradient><radialGradient id="d" cx="0.494" cy="0.482" r="0.636" gradientTransform="translate(0.165) scale(0.667 1)" xlink:href="#a"/><radialGradient id="e" cx="0.502" cy="0.503" r="0.915" gradientTransform="translate(0.294) scale(0.415 1)" xlink:href="#a"/></defs><g transform="translate(-3.6 -11.4)"><g transform="translate(49.021 24.851)"><circle cx="10.63" cy="10.63" r="10.63" transform="translate(0 0)" fill="#fff"/><circle cx="10.548" cy="10.548" r="10.548" transform="translate(0.082 0)" fill="#fff" stroke="#263a7c" stroke-width="1.359"/></g><path d="M148.766,71.938a9.934,9.934,0,0,1-4.906,6.868c.654-2.944-5.642-5.274-5.765-5.642-.123-.286,3.148-.777,2.617-2.78.041-.041,1.922-.041,8.054,1.554Z" transform="translate(-79.507 -34.864)" fill="url(#a)"/><path d="M136.519,55.589a8.107,8.107,0,0,1-.123,1.431l-6.132-1.349,4.374-.2-4.334-.531,4.334-.94-4.415.2,4.088-1.84-4.334,1.186,3.475-2.576-3.884,1.962,2.944-3.352L129,52.482l2.249-3.843-2.739,3.434,1.39-4.129-2.085,3.925.572-4.374-1.349,4.17-.245-4.538-.491,4.5-1.145-4.293.45,4.334-2-3.925,1.472,4.334-2.821-3.393,2.167,3.72-3.434-2.821,2.984,3.393L120,50.847l3.557,2.78-4.17-1.267,3.966,1.881-4.334-.327,4.252,1.063-4.415.531,4.538.164-6.255.9a7.877,7.877,0,0,1-.041-.981,9.71,9.71,0,0,1,19.419,0Z" transform="translate(-67.098 -20.395)" fill="url(#b)"/><g transform="translate(3.723 11.4)"><path d="M3.9,45.088H9.051l.041-31.766H3.941v-.654H30.515v8.054h-.531a21.47,21.47,0,0,0-1.308-3.189A8.938,8.938,0,0,0,27,15.2a6.765,6.765,0,0,0-2.33-1.431,9.576,9.576,0,0,0-3.271-.45H13.712V28.366h3.025a9.845,9.845,0,0,0,2.617-.286,4.29,4.29,0,0,0,1.84-1.022A6.08,6.08,0,0,0,22.5,24.973a28.487,28.487,0,0,0,1.063-3.393H24.1V36.012h-.531L22.911,33.4a10.12,10.12,0,0,0-.981-2.249,4.381,4.381,0,0,0-1.676-1.554,5.743,5.743,0,0,0-2.7-.572H13.794V45.088h5.151v.654H3.982L3.9,45.088Zm31.276.041h3.557l.041-32.216H35.216v-.654H42.78l-.041,32.829H46.3v.654H35.135v-.613Zm37.326.041h3.557V26.527H72.5v-.654h7.482v4.7h.082a8.652,8.652,0,0,1,.613-1.554A7.21,7.21,0,0,1,81.864,27.3a7.794,7.794,0,0,1,1.8-1.39,5.4,5.4,0,0,1,2.535-.572,4.219,4.219,0,0,1,1.84.368,3.906,3.906,0,0,1,1.308.9,3.775,3.775,0,0,1,.736,1.226,4.1,4.1,0,0,1,.2,1.39,2.446,2.446,0,0,1-.7,2.044,2.792,2.792,0,0,1-1.635.531c-1.39,0-2.044-.45-2.044-1.308a2.562,2.562,0,0,1,.082-.654,4.585,4.585,0,0,1,.2-.531,2.364,2.364,0,0,0,.2-.572,4.964,4.964,0,0,0,.082-.94c0-.981-.531-1.472-1.635-1.472a2.807,2.807,0,0,0-1.554.572,5.456,5.456,0,0,0-1.554,1.635,8.346,8.346,0,0,0-1.186,2.576,11.14,11.14,0,0,0-.491,3.475V45.21h4.047v.654H72.5v-.7Zm20.769,0h3.557V26.527H93.27v-.654h7.563V45.129h3.557v.654H93.23v-.613h.041Zm3.066-30.09a2.494,2.494,0,1,1,4.252,1.758,2.468,2.468,0,0,1-3.516,0,2.444,2.444,0,0,1-.736-1.758Zm24.53-3.679h7.563l-.041,33.769h3.557v.654h-7.482V40.836h-.082a14.455,14.455,0,0,1-.572,1.349,6.073,6.073,0,0,1-1.1,1.554,6.464,6.464,0,0,1-1.8,1.267,6.264,6.264,0,0,1-2.657.531,8.471,8.471,0,0,1-3.884-.9,11.108,11.108,0,0,1-5.437-5.805,10.576,10.576,0,0,1-.818-4.088,10.287,10.287,0,0,1,.777-4.007,10.113,10.113,0,0,1,2.167-3.312,11.323,11.323,0,0,1,3.107-2.289,8.458,8.458,0,0,1,3.761-.859,6.351,6.351,0,0,1,6.337,4.334h.082V11.972h-3.475V11.4Zm-8.054,22.854c0,1.594.041,3.066.123,4.374a10.765,10.765,0,0,0,.7,3.352,4.721,4.721,0,0,0,1.676,2.167,5.43,5.43,0,0,0,3.025.736,5.523,5.523,0,0,0,3.148-.818,5.928,5.928,0,0,0,1.84-2.167,11.232,11.232,0,0,0,.9-2.944,21.23,21.23,0,0,0,.245-3.148c0-1.186,0-2.249-.082-3.148a18.454,18.454,0,0,0-.245-2.371,6.375,6.375,0,0,0-.531-1.758,11.191,11.191,0,0,0-.777-1.39,5.571,5.571,0,0,0-1.8-1.554,5.766,5.766,0,0,0-2.821-.613,4.744,4.744,0,0,0-2.657.654,4.489,4.489,0,0,0-1.635,1.84,9.359,9.359,0,0,0-.818,2.9,22.781,22.781,0,0,0-.286,3.884h0Zm42.559,9.935a6.886,6.886,0,0,1-1.431.818,4.942,4.942,0,0,1-2.044.368,4.687,4.687,0,0,1-3.23-.94,5.017,5.017,0,0,1-1.39-2.657H147.2a8.385,8.385,0,0,1-.531,1.022,4.326,4.326,0,0,1-.981,1.186,5.309,5.309,0,0,1-1.8.981,8.958,8.958,0,0,1-2.821.409,9.089,9.089,0,0,1-3.107-.45,4.508,4.508,0,0,1-1.8-1.1,3.189,3.189,0,0,1-.859-1.472,6.412,6.412,0,0,1-.2-1.513,4.513,4.513,0,0,1,.654-2.617,4.221,4.221,0,0,1,1.717-1.554,9.922,9.922,0,0,1,2.33-.94l2.576-.777c1.022-.327,1.881-.613,2.535-.9a5.019,5.019,0,0,0,1.554-.9,2.943,2.943,0,0,0,.777-1.349,8.066,8.066,0,0,0,.2-2.208,10.193,10.193,0,0,0-.164-2,3.509,3.509,0,0,0-.531-1.513,2.381,2.381,0,0,0-1.063-.94,4.633,4.633,0,0,0-1.84-.327,5.686,5.686,0,0,0-2.535.531,1.857,1.857,0,0,0-.981,1.758,9.569,9.569,0,0,0,.123,1.554,10.617,10.617,0,0,1,.164,1.145,1.655,1.655,0,0,1-.45,1.1,1.987,1.987,0,0,1-1.349.45c-1.022,0-1.676-.2-1.922-.572a2.565,2.565,0,0,1-.368-1.431,4.6,4.6,0,0,1,.45-1.962,4.8,4.8,0,0,1,1.39-1.635,7.069,7.069,0,0,1,2.289-1.145A10.5,10.5,0,0,1,143.8,24.2a10.873,10.873,0,0,1,3.557.531,5.952,5.952,0,0,1,2.33,1.431,5.56,5.56,0,0,1,1.267,2.044,7.963,7.963,0,0,1,.368,2.371v11.57a2.954,2.954,0,0,0,.409,1.8,1.485,1.485,0,0,0,1.186.45,3.071,3.071,0,0,0,1.063-.2,3.838,3.838,0,0,0,1.063-.572l.327.572Zm-8.136-10.916h-.082c-.041.409-.572.818-1.554,1.186l-3.475,1.39a5.227,5.227,0,0,0-2.289,1.717,4.519,4.519,0,0,0-.777,2.739,5.916,5.916,0,0,0,.164,1.431,3.225,3.225,0,0,0,.531,1.349,2.532,2.532,0,0,0,1.022.94,3.623,3.623,0,0,0,1.758.368,4.273,4.273,0,0,0,2.494-.654,4.2,4.2,0,0,0,1.431-1.635,7.166,7.166,0,0,0,.654-2.126,12.933,12.933,0,0,0,.164-2.085l-.041-4.62Z" transform="translate(-3.9 -11.4)" fill="#231f20"/><path d="M3.9,45.088H9.051l.041-31.766H3.941v-.654H30.515v8.054h-.531a21.47,21.47,0,0,0-1.308-3.189A8.938,8.938,0,0,0,27,15.2a6.765,6.765,0,0,0-2.33-1.431,9.576,9.576,0,0,0-3.271-.45H13.712V28.366h3.025a9.845,9.845,0,0,0,2.617-.286,4.29,4.29,0,0,0,1.84-1.022A6.08,6.08,0,0,0,22.5,24.973a28.487,28.487,0,0,0,1.063-3.393H24.1V36.012h-.531L22.911,33.4a10.12,10.12,0,0,0-.981-2.249,4.381,4.381,0,0,0-1.676-1.554,5.743,5.743,0,0,0-2.7-.572H13.794V45.088h5.151v.654H3.982L3.9,45.088Zm31.276.041h3.557l.041-32.216H35.216v-.654H42.78l-.041,32.829H46.3v.654H35.135v-.613Zm37.326.041h3.557V26.527H72.5v-.654h7.482v4.7h.082a8.652,8.652,0,0,1,.613-1.554A7.21,7.21,0,0,1,81.864,27.3a7.794,7.794,0,0,1,1.8-1.39,5.4,5.4,0,0,1,2.535-.572,4.219,4.219,0,0,1,1.84.368,3.906,3.906,0,0,1,1.308.9,3.775,3.775,0,0,1,.736,1.226,4.1,4.1,0,0,1,.2,1.39,2.446,2.446,0,0,1-.7,2.044,2.792,2.792,0,0,1-1.635.531c-1.39,0-2.044-.45-2.044-1.308a2.562,2.562,0,0,1,.082-.654,4.585,4.585,0,0,1,.2-.531,2.364,2.364,0,0,0,.2-.572,4.964,4.964,0,0,0,.082-.94c0-.981-.531-1.472-1.635-1.472a2.807,2.807,0,0,0-1.554.572,5.456,5.456,0,0,0-1.554,1.635,8.346,8.346,0,0,0-1.186,2.576,11.14,11.14,0,0,0-.491,3.475V45.21h4.047v.654H72.5v-.7Zm20.769,0h3.557V26.527H93.27v-.654h7.563V45.129h3.557v.654H93.23v-.613h.041Zm3.066-30.09a2.494,2.494,0,1,1,4.252,1.758,2.468,2.468,0,0,1-3.516,0,2.444,2.444,0,0,1-.736-1.758Zm24.53-3.679h7.563l-.041,33.769h3.557v.654h-7.482V40.836h-.082a14.455,14.455,0,0,1-.572,1.349,6.073,6.073,0,0,1-1.1,1.554,6.464,6.464,0,0,1-1.8,1.267,6.264,6.264,0,0,1-2.657.531,8.471,8.471,0,0,1-3.884-.9,11.108,11.108,0,0,1-5.437-5.805,10.576,10.576,0,0,1-.818-4.088,10.287,10.287,0,0,1,.777-4.007,10.113,10.113,0,0,1,2.167-3.312,11.323,11.323,0,0,1,3.107-2.289,8.458,8.458,0,0,1,3.761-.859,6.351,6.351,0,0,1,6.337,4.334h.082V11.972h-3.475V11.4Zm-8.054,22.854c0,1.594.041,3.066.123,4.374a10.765,10.765,0,0,0,.7,3.352,4.721,4.721,0,0,0,1.676,2.167,5.43,5.43,0,0,0,3.025.736,5.523,5.523,0,0,0,3.148-.818,5.928,5.928,0,0,0,1.84-2.167,11.232,11.232,0,0,0,.9-2.944,21.23,21.23,0,0,0,.245-3.148c0-1.186,0-2.249-.082-3.148a18.454,18.454,0,0,0-.245-2.371,6.375,6.375,0,0,0-.531-1.758,11.191,11.191,0,0,0-.777-1.39,5.571,5.571,0,0,0-1.8-1.554,5.766,5.766,0,0,0-2.821-.613,4.744,4.744,0,0,0-2.657.654,4.489,4.489,0,0,0-1.635,1.84,9.359,9.359,0,0,0-.818,2.9,22.781,22.781,0,0,0-.286,3.884h0Zm42.559,9.853a6.886,6.886,0,0,1-1.431.818,4.942,4.942,0,0,1-2.044.368,4.687,4.687,0,0,1-3.23-.94,5.017,5.017,0,0,1-1.39-2.657H147.2c-.123.286-.286.613-.531,1.063a4.464,4.464,0,0,1-.981,1.186,5.309,5.309,0,0,1-1.8.981,8.958,8.958,0,0,1-2.821.409,9.089,9.089,0,0,1-3.107-.45,4.508,4.508,0,0,1-1.8-1.1,3.189,3.189,0,0,1-.859-1.472,6.412,6.412,0,0,1-.2-1.513,4.513,4.513,0,0,1,.654-2.617,4.221,4.221,0,0,1,1.717-1.554,9.922,9.922,0,0,1,2.33-.94l2.576-.777c1.022-.327,1.881-.613,2.535-.9a5.019,5.019,0,0,0,1.554-.9,2.943,2.943,0,0,0,.777-1.349,8.067,8.067,0,0,0,.2-2.208,10.193,10.193,0,0,0-.164-2,3.509,3.509,0,0,0-.531-1.513,2.381,2.381,0,0,0-1.063-.94,4.633,4.633,0,0,0-1.84-.327,5.686,5.686,0,0,0-2.535.531,1.857,1.857,0,0,0-.981,1.758,9.569,9.569,0,0,0,.123,1.554,10.616,10.616,0,0,1,.164,1.145,1.655,1.655,0,0,1-.45,1.1,1.987,1.987,0,0,1-1.349.45c-1.022,0-1.676-.2-1.922-.572a2.565,2.565,0,0,1-.368-1.431,4.6,4.6,0,0,1,.45-1.962,4.8,4.8,0,0,1,1.39-1.635,7.069,7.069,0,0,1,2.289-1.145,10.5,10.5,0,0,1,3.148-.409,10.873,10.873,0,0,1,3.557.531,5.952,5.952,0,0,1,2.33,1.431,5.56,5.56,0,0,1,1.267,2.044,7.963,7.963,0,0,1,.368,2.371V42.1a2.954,2.954,0,0,0,.409,1.8,1.485,1.485,0,0,0,1.186.45,3.071,3.071,0,0,0,1.063-.2,3.838,3.838,0,0,0,1.063-.572l.327.531Zm-8.136-10.875h-.082c-.041.409-.572.818-1.554,1.186l-3.475,1.39a5.227,5.227,0,0,0-2.289,1.717,4.519,4.519,0,0,0-.777,2.739,5.916,5.916,0,0,0,.164,1.431,3.225,3.225,0,0,0,.531,1.349,2.532,2.532,0,0,0,1.022.94,3.623,3.623,0,0,0,1.758.368,4.051,4.051,0,0,0,3.925-2.289,7.166,7.166,0,0,0,.654-2.126,12.933,12.933,0,0,0,.164-2.085l-.041-4.62Z" transform="translate(-3.9 -11.4)" fill="#231f20" opacity="0.3"/></g><path d="M117.2,71.2s.7,7.277,7.768,8.3c2.371.327,4.088-.736,4.334-1.513.327-1.1-4.947-3.843-4.7-5.315.164-.94,3.72-.491,3.352-2.412C127.748,69.406,117.2,71.2,117.2,71.2Z" transform="translate(-67.157 -34.661)" fill="url(#c)"/><path d="M135.3,62.586l1.758.777,2.453-1.1-2.453-.859-2.453.94.491.2v2.126h.409v-.654l-.2-.245Z" transform="translate(-77.443 -29.558)" fill="url(#d)"/><path d="M136.5,64.741v.777a4.344,4.344,0,0,0,1.676.572,4.233,4.233,0,0,0,1.676-.491v-.9l-1.676.736-1.676-.7Z" transform="translate(-78.566 -31.509)" fill="url(#e)"/><path d="M3.6,116.341l.94-.082a2.26,2.26,0,0,0,.368,1.186,2.123,2.123,0,0,0,.777.7,2.489,2.489,0,0,0,1.145.245,2.1,2.1,0,0,0,1.39-.45,1.426,1.426,0,0,0,.491-1.145,1.116,1.116,0,0,0-.2-.736,1.531,1.531,0,0,0-.531-.491,12.525,12.525,0,0,0-1.554-.572,4.739,4.739,0,0,1-1.554-.654,2.193,2.193,0,0,1-.7-.818,2.489,2.489,0,0,1-.245-1.145,2.372,2.372,0,0,1,.736-1.84,2.652,2.652,0,0,1,1.962-.736,3.258,3.258,0,0,1,1.472.327,2.077,2.077,0,0,1,.981.981,3.259,3.259,0,0,1,.368,1.472l-.981.082a1.87,1.87,0,0,0-.531-1.349,1.877,1.877,0,0,0-1.308-.45,1.862,1.862,0,0,0-1.308.409,1.293,1.293,0,0,0-.123,1.84,3.967,3.967,0,0,0,1.472.613,10.5,10.5,0,0,1,1.554.531,2.992,2.992,0,0,1,1.063.94,2.615,2.615,0,0,1,.368,1.39,2.762,2.762,0,0,1-.368,1.431A2.16,2.16,0,0,1,8.261,119a3.5,3.5,0,0,1-1.554.327,3.019,3.019,0,0,1-2.249-.859,2.42,2.42,0,0,1-.859-2.126h0Zm11.447,2,.123.981a2.144,2.144,0,0,1-.7.082,1.166,1.166,0,0,1-.777-.2.9.9,0,0,1-.409-.531,4.543,4.543,0,0,1-.123-1.349v-3.884h-.7v-.9h.7v-1.676l.94-.7v2.371h.94v.9h-.94v3.925a1.416,1.416,0,0,0,.082.7c.082.164.2.2.45.2.082.123.245.082.409.082Zm6.541.164a3.252,3.252,0,0,1-.981.736,2.385,2.385,0,0,1-1.063.245,1.848,1.848,0,0,1-1.39-.531,2.019,2.019,0,0,1-.531-1.39,1.992,1.992,0,0,1,.245-1.022,2.14,2.14,0,0,1,.654-.7,3.623,3.623,0,0,1,1.267-.368,7.086,7.086,0,0,0,1.676-.409v-.286a1.572,1.572,0,0,0-.245-.981,1.276,1.276,0,0,0-1.063-.409,1.408,1.408,0,0,0-.981.286,2.16,2.16,0,0,0-.491,1.022l-.94-.164a2.547,2.547,0,0,1,.777-1.554,2.683,2.683,0,0,1,1.717-.491,2.527,2.527,0,0,1,1.349.327,1.34,1.34,0,0,1,.613.818,5.974,5.974,0,0,1,.123,1.39v1.513l.041,2a3.115,3.115,0,0,0,.245.818h-.859A2.672,2.672,0,0,1,21.589,118.508Zm-.082-2.535a4.915,4.915,0,0,1-1.513.409l-.818.2a.8.8,0,0,0-.368.368,1.187,1.187,0,0,0-.123.572,1.018,1.018,0,0,0,.286.777,1.114,1.114,0,0,0,.818.286,1.751,1.751,0,0,0,.9-.245,1.443,1.443,0,0,0,.613-.7,3.251,3.251,0,0,0,.2-1.267Zm6.541,2.371.123.981a2.144,2.144,0,0,1-.7.082,1.166,1.166,0,0,1-.777-.2.9.9,0,0,1-.409-.531,4.543,4.543,0,0,1-.123-1.349v-3.884h-.7v-.9h.7v-1.676l.94-.7v2.371h.94v.9h-.981v3.925a1.416,1.416,0,0,0,.082.7c.082.164.2.2.45.2.123.123.245.082.45.082h0Zm6.664-1.145.981.164A2.981,2.981,0,0,1,34.835,119a2.407,2.407,0,0,1-3.434-.327,3.872,3.872,0,0,1-.736-2.576,4.119,4.119,0,0,1,.736-2.657,2.245,2.245,0,0,1,1.84-.9,2.049,2.049,0,0,1,1.758.9,3.947,3.947,0,0,1,.736,2.576v.286H31.6a2.763,2.763,0,0,0,.531,1.717,1.375,1.375,0,0,0,1.145.572c.7-.041,1.186-.491,1.431-1.39h0Zm-3.066-1.84h3.066a2.624,2.624,0,0,0-.368-1.308,1.366,1.366,0,0,0-1.145-.613,1.3,1.3,0,0,0-1.063.531A2.26,2.26,0,0,0,31.646,115.36Zm8.3,4.007-1.676-6.7h.981l.859,3.884.327,1.431.286-1.39.859-3.925h.981l.818,3.925.286,1.267,1.267-5.192h.9l-1.717,6.7h-.981l-.9-4.007-.2-1.145-1.1,5.151h-.981Zm8.708-7.972v-1.308h.94v1.308Zm0,7.972v-6.7h.94v6.7Zm8.013,0v-.859a1.931,1.931,0,0,1-.654.736,1.609,1.609,0,0,1-.859.245,2.111,2.111,0,0,1-1.676-.94,4.022,4.022,0,0,1-.7-2.576,5.63,5.63,0,0,1,.327-1.962,2.424,2.424,0,0,1,.859-1.186,2.076,2.076,0,0,1,1.186-.409,1.609,1.609,0,0,1,.859.245,2.14,2.14,0,0,1,.654.7V110h.94v9.28Zm-2.944-3.352a3.664,3.664,0,0,0,.45,1.962,1.282,1.282,0,0,0,1.063.613,1.218,1.218,0,0,0,1.022-.613,3.206,3.206,0,0,0,.45-1.84,3.687,3.687,0,0,0-.45-2.044,1.341,1.341,0,0,0-1.1-.654,1.218,1.218,0,0,0-1.022.613A3.268,3.268,0,0,0,53.723,116.014Zm11.12,1.186.981.164A2.981,2.981,0,0,1,64.965,119a2.407,2.407,0,0,1-3.434-.327A3.872,3.872,0,0,1,60.8,116.1a4.119,4.119,0,0,1,.736-2.657,2.245,2.245,0,0,1,1.84-.9,2.049,2.049,0,0,1,1.758.9,3.947,3.947,0,0,1,.736,2.576v.286H61.736a2.763,2.763,0,0,0,.531,1.717,1.375,1.375,0,0,0,1.145.572c.654-.041,1.145-.491,1.431-1.39Zm-3.066-1.84h3.066a2.624,2.624,0,0,0-.368-1.308,1.366,1.366,0,0,0-1.145-.613,1.3,1.3,0,0,0-1.063.531A2.26,2.26,0,0,0,61.777,115.36Z" transform="translate(0 -58.171)" fill="#231f20"/><g transform="translate(71.67 51.915)"><path d="M170.1,119.78l2.944-9.28h1.063l3.107,9.28h-1.145l-.9-2.821h-3.189l-.818,2.821Zm2.167-3.8h2.576l-.777-2.576-.531-1.922a13.65,13.65,0,0,1-.409,1.758Zm7.318,1.758.94-.2a1.6,1.6,0,0,0,.45,1.063,1.513,1.513,0,0,0,.981.368,1.3,1.3,0,0,0,.94-.286,1.047,1.047,0,0,0,.327-.777.688.688,0,0,0-.286-.613,9.431,9.431,0,0,0-.94-.409,6.4,6.4,0,0,1-1.472-.572,2.051,2.051,0,0,1-.572-.613,2.081,2.081,0,0,1-.2-.9,1.879,1.879,0,0,1,.572-1.39,2.013,2.013,0,0,1,1.513-.531,2.734,2.734,0,0,1,1.063.2,1.684,1.684,0,0,1,.7.572,2.332,2.332,0,0,1,.327,1.063l-.9.164a1.093,1.093,0,0,0-1.186-1.1,1.389,1.389,0,0,0-.9.245.736.736,0,0,0-.286.613.619.619,0,0,0,.286.572,6.857,6.857,0,0,0,1.022.409,11.153,11.153,0,0,1,1.513.572,1.424,1.424,0,0,1,.531.572,2.081,2.081,0,0,1,.2.9,2,2,0,0,1-.613,1.554,2.447,2.447,0,0,1-1.676.572c-1.349.123-2.085-.572-2.33-2.044h0Zm7.4,0,.94-.2a1.6,1.6,0,0,0,.45,1.063,1.326,1.326,0,0,0,.981.368,1.3,1.3,0,0,0,.94-.286,1.047,1.047,0,0,0,.327-.777.688.688,0,0,0-.286-.613,9.431,9.431,0,0,0-.94-.409,6.4,6.4,0,0,1-1.472-.572,2.051,2.051,0,0,1-.572-.613,2.081,2.081,0,0,1-.2-.9,1.879,1.879,0,0,1,.572-1.39,2.013,2.013,0,0,1,1.513-.531,2.734,2.734,0,0,1,1.063.2,1.684,1.684,0,0,1,.7.572,2.332,2.332,0,0,1,.327,1.063l-.9.164a1.093,1.093,0,0,0-1.186-1.1,1.389,1.389,0,0,0-.9.245.736.736,0,0,0-.286.613.619.619,0,0,0,.286.572,6.857,6.857,0,0,0,1.022.409,11.153,11.153,0,0,1,1.513.572,2.333,2.333,0,0,1,.531.572,2.081,2.081,0,0,1,.2.9,2,2,0,0,1-.613,1.554,2.264,2.264,0,0,1-1.676.572c-1.349.123-2.126-.572-2.33-2.044h0Zm11.488-.123.981.164a2.981,2.981,0,0,1-.859,1.635,2.407,2.407,0,0,1-3.434-.327,3.947,3.947,0,0,1-.736-2.576,4.119,4.119,0,0,1,.736-2.657,2.245,2.245,0,0,1,1.84-.9,2.049,2.049,0,0,1,1.758.9,3.947,3.947,0,0,1,.736,2.576v.286h-4.129a2.763,2.763,0,0,0,.531,1.717,1.375,1.375,0,0,0,1.145.572c.7-.041,1.145-.491,1.431-1.39h0Zm-3.066-1.84h3.066a2.624,2.624,0,0,0-.368-1.308,1.366,1.366,0,0,0-1.145-.613,1.3,1.3,0,0,0-1.063.531,2.26,2.26,0,0,0-.491,1.39Z" transform="translate(-170.1 -110.5)" fill="#2f549f"/><path d="M248.9,121.165l.94-.2a1.6,1.6,0,0,0,.45,1.063,1.513,1.513,0,0,0,.981.368,1.3,1.3,0,0,0,.94-.286,1.047,1.047,0,0,0,.327-.777.688.688,0,0,0-.286-.613,9.425,9.425,0,0,0-.94-.409,6.4,6.4,0,0,1-1.472-.572,2.051,2.051,0,0,1-.572-.613,2.081,2.081,0,0,1-.2-.9,1.879,1.879,0,0,1,.572-1.39,2.013,2.013,0,0,1,1.513-.531,2.734,2.734,0,0,1,1.063.2,1.684,1.684,0,0,1,.7.572,2.332,2.332,0,0,1,.327,1.063l-.9.164a1.093,1.093,0,0,0-1.186-1.1,1.389,1.389,0,0,0-.9.245.736.736,0,0,0-.286.613.619.619,0,0,0,.286.572,6.857,6.857,0,0,0,1.022.409,11.152,11.152,0,0,1,1.513.572,2.333,2.333,0,0,1,.531.572,2.081,2.081,0,0,1,.2.9,2,2,0,0,1-.613,1.554,2.446,2.446,0,0,1-1.676.572c-1.349.123-2.126-.572-2.33-2.044Z" transform="translate(-216.684 -113.929)" fill="#2f549f"/><path d="M267,117.855l.94-.2a1.6,1.6,0,0,0,.45,1.063,1.513,1.513,0,0,0,.981.368,1.3,1.3,0,0,0,.94-.286,1.047,1.047,0,0,0,.327-.777.688.688,0,0,0-.286-.613,9.431,9.431,0,0,0-.94-.409,6.4,6.4,0,0,1-1.472-.572,2.051,2.051,0,0,1-.572-.613,2.081,2.081,0,0,1-.2-.9,1.879,1.879,0,0,1,.572-1.39,2.013,2.013,0,0,1,1.513-.531,2.734,2.734,0,0,1,1.063.2,1.684,1.684,0,0,1,.7.572,2.332,2.332,0,0,1,.327,1.063l-.9.164a1.094,1.094,0,0,0-1.186-1.1,1.389,1.389,0,0,0-.9.245.736.736,0,0,0-.286.613.619.619,0,0,0,.286.572,6.856,6.856,0,0,0,1.022.409,11.152,11.152,0,0,1,1.513.572,2.333,2.333,0,0,1,.531.572,2.081,2.081,0,0,1,.2.9,2,2,0,0,1-.613,1.554,2.446,2.446,0,0,1-1.676.572c-1.349.123-2.126-.572-2.33-2.044Zm7.727,2.044v-6.7h.818v.94a2.048,2.048,0,0,1,.736-.818,1.63,1.63,0,0,1,.981-.286,1.477,1.477,0,0,1,.981.286,1.873,1.873,0,0,1,.572.859,2.013,2.013,0,0,1,.777-.859,1.591,1.591,0,0,1,.94-.286,1.724,1.724,0,0,1,1.267.531,2.783,2.783,0,0,1,.45,1.717v4.62h-.94v-4.252a2.965,2.965,0,0,0-.123-1.022.99.99,0,0,0-.327-.45,1.023,1.023,0,0,0-.531-.164,1.166,1.166,0,0,0-.981.491,2.476,2.476,0,0,0-.409,1.513v3.925H278v-4.374a2.135,2.135,0,0,0-.245-1.186.873.873,0,0,0-.7-.327,1.176,1.176,0,0,0-1.022.531,3.517,3.517,0,0,0-.368,1.881v3.516Zm14.677-2.167.981.164a2.981,2.981,0,0,1-.859,1.635,2.407,2.407,0,0,1-3.434-.327,3.872,3.872,0,0,1-.736-2.576,4.119,4.119,0,0,1,.736-2.657,2.245,2.245,0,0,1,1.84-.9,2.049,2.049,0,0,1,1.758.9,3.947,3.947,0,0,1,.736,2.576v.286H286.3a2.763,2.763,0,0,0,.531,1.717,1.375,1.375,0,0,0,1.145.572c.654-.041,1.145-.491,1.431-1.39h0Zm-3.066-1.84H289.4a2.624,2.624,0,0,0-.368-1.308,1.366,1.366,0,0,0-1.145-.613,1.3,1.3,0,0,0-1.063.531,2.26,2.26,0,0,0-.491,1.39Zm7.277,4.007v-6.7h.818v.94a2.07,2.07,0,0,1,.736-.818,1.63,1.63,0,0,1,.981-.286,1.83,1.83,0,0,1,.818.164,1.708,1.708,0,0,1,.613.45,1.779,1.779,0,0,1,.368.736,5.738,5.738,0,0,1,.123,1.39V119.9h-.94V115.81a3.72,3.72,0,0,0-.123-1.1,1.047,1.047,0,0,0-.409-.531,1.217,1.217,0,0,0-.613-.2,1.316,1.316,0,0,0-1.063.491,2.646,2.646,0,0,0-.409,1.717v3.679l-.9.041Zm10.057-1.022.123.981a2.144,2.144,0,0,1-.7.082,1.166,1.166,0,0,1-.777-.2.9.9,0,0,1-.409-.531,4.544,4.544,0,0,1-.123-1.349v-3.884h-.7v-.9h.7V111.4l.94-.7v2.371h.94v.9h-.94V117.9a1.415,1.415,0,0,0,.082.7c.082.164.2.2.45.2.082.123.245.082.409.082h0Z" transform="translate(-227.384 -110.618)" fill="#2f549f"/><path d="M248.9,121.165l.94-.2a1.6,1.6,0,0,0,.45,1.063,1.513,1.513,0,0,0,.981.368,1.3,1.3,0,0,0,.94-.286,1.047,1.047,0,0,0,.327-.777.688.688,0,0,0-.286-.613,9.425,9.425,0,0,0-.94-.409,6.4,6.4,0,0,1-1.472-.572,2.051,2.051,0,0,1-.572-.613,2.081,2.081,0,0,1-.2-.9,1.879,1.879,0,0,1,.572-1.39,2.013,2.013,0,0,1,1.513-.531,2.734,2.734,0,0,1,1.063.2,1.684,1.684,0,0,1,.7.572,2.332,2.332,0,0,1,.327,1.063l-.9.164a1.093,1.093,0,0,0-1.186-1.1,1.389,1.389,0,0,0-.9.245.736.736,0,0,0-.286.613.619.619,0,0,0,.286.572,6.857,6.857,0,0,0,1.022.409,11.152,11.152,0,0,1,1.513.572,2.333,2.333,0,0,1,.531.572,2.081,2.081,0,0,1,.2.9,2,2,0,0,1-.613,1.554,2.446,2.446,0,0,1-1.676.572c-1.349.123-2.126-.572-2.33-2.044Z" transform="translate(-170.037 -113.929)" fill="#2f549f"/></g></g></svg>