<svg xmlns="http://www.w3.org/2000/svg" width="400" height="400" viewBox="0, 0, 400,400">
    <g>
        <path
            d="M 129 6 C 112 4 104 15 105 28 L 112 182 L 26 114 C 15 107 5 113 5 121 L 5 370 C 5 388 12 394 28 394 L 106 394 C 118 393 128 382 129 370 L 123 203 L 190 255 C 199 260 212 259 217 243 L 255 68 C 260 44 256 30 240 23 Z M 129 15 L 235 33 C 248 42 248 48 245 65 L 209 241 C 207 249 196 249 189 243 L 122 188 L 115 28 C 115 17 119 15 129 15 M 24 125 L 112 195 L 119 368 C 119 377 112 383 104 384 L 28 384 C 18 384 15 380 15 370 L 15 131 C 15 124 19 122 24 125"
            fill="#ab2328"/>
    </g>
</svg>